{"title":"Sex.and.Drugs.and.Rock.and.Roll.S01E01.WEB-DL.DD5.1-RARBG","uid":12136539,"size":1001732878,"categoryP":"video","categoryS":"hd___tv_shows","magnet":"?xt=urn:btih:def33a616598f9f84ca9ddbd8e44a1a8ef4d8cf5&amp;dn=Sex.and.Drugs.and.Rock.and.Roll.S01E01.WEB-DL.DD5.1-RARBG&amp;tr=udp%3A%2F%2Ftracker.openbittorrent.com%3A80&amp;tr=udp%3A%2F%2Fopen.demonii.com%3A1337&amp;tr=udp%3A%2F%2Ftracker.coppersurfer.tk%3A6969&amp;tr=udp%3A%2F%2Fexodus.desync.com%3A6969","seeders":0,"leechers":0,"uploader":"frostyon420","files":5,"time":1437199476,"description":"Itunes \n[mediainfo]\nVideo\nID                          : 1\nFormat                      : AVC\nFormat/Info                 : Advanced Video Codec\nFormat profile              : &lt;a class=&quot;__cf_email__&quot; href=&quot;/cdn-cgi/l/email-protection&quot; data-cfemail=&quot;7139181619313d455f41&quot;&gt;[email&amp;#160;protected]&lt;/a&gt;&lt;script data-cfhash='f9e31' type=&quot;text/javascript&quot;&gt;\n/* &lt;![CDATA[ */!function(){try{var t=&quot;currentScript&quot;in document?document.currentScript:function(){for(var t=document.getElementsByTagName(&quot;script&quot;),e=t.length;e--;)if(t[e].getAttribute(&quot;data-cfhash&quot;))return t[e]}();if(t&amp;&amp;t.previousSibling){var e,r,n,i,c=t.previousSibling,a=c.getAttribute(&quot;data-cfemail&quot;);if(a){for(e=&quot;&quot;,r=parseInt(a.substr(0,2),16),n=2;a.length-n;n+=2)i=parseInt(a.substr(n,2),16)^r,e+=String.fromCharCode(i);e=document.createTextNode(e),c.parentNode.replaceChild(e,c)}t.parentNode.removeChild(t);}}catch(u){}}()/* ]]&gt; */&lt;/script&gt;\nFormat settings, CABAC      : Yes\nFormat settings, ReFrames   : 4 frames\nCodec ID                    : V_MPEG4/ISO/AVC\nDuration                    : 24mn 56s\nBit rate                    : 4 499 Kbps\nWidth                       : 1 920 pixels\nHeight                      : 1 080 pixels\nDisplay aspect ratio        : 16:9\nFrame rate mode             : Constant\nFrame rate                  : 23.976 fps\nColor space                 : YUV\nChroma subsampling          : 4:2:0\nBit depth                   : 8 bits\nScan type                   : Progressive\nBits/(Pixel*Frame)          : 0.090\nStream size                 : 802 MiB (90%)\nTitle                       : Sex.and.Drugs.and.Rock.and.Roll.S01E01.Dont.Wanna.Die.Anonymous.1080p.WEB-DL.DD5.1.H.264-RARBG\nDefault                     : Yes\nForced                      : No\nColor primaries             : BT.709\nTransfer characteristics    : BT.709\nMatrix coefficients         : BT.709\nColor range                 : Limited\n\nAudio\nID                          : 2\nFormat                      : AC-3\nFormat/Info                 : Audio Coding 3\nMode extension              : CM (complete main)\nFormat settings, Endianness : Big\nCodec ID                    : A_AC3\nDuration                    : 24mn 56s\nBit rate mode               : Constant\nBit rate                    : 384 Kbps\nChannel(s)                  : 6 channels\nChannel positions           : Front: L C R, Side: L R, LFE\nSampling rate               : 48.0 KHz\nBit depth                   : 16 bits\nCompression mode            : Lossy\nDelay relative to video     : 26ms\nStream size                 : 68.5 MiB (8%)\nTitle                       : Sex.and.Drugs.and.Rock.and.Roll.S01E01.Dont.Wanna.Die.Anonymous.1080p.WEB-DL.DD5.1.H.264-RARBG\nDefault                     : Yes\nForced                      : No\n\nText\nID                          : 3\nFormat                      : UTF-8\nCodec ID                    : S_TEXT/UTF8\nCodec ID/Info               : UTF-8 Plain Text\nTitle                       : English\nLanguage                    : English\nDefault                     : No\nForced                      : No\n\n\nPhr0stY-Duz-It\n[/mediainfo]","torrent":{"xt":"urn:btih:def33a616598f9f84ca9ddbd8e44a1a8ef4d8cf5","amp;dn":"Sex.and.Drugs.and.Rock.and.Roll.S01E01.WEB-DL.DD5.1-RARBG","amp;tr":["udp%3A%2F%2Ftracker.openbittorrent.com%3A80","udp%3A%2F%2Fopen.demonii.com%3A1337","udp%3A%2F%2Ftracker.coppersurfer.tk%3A6969","udp%3A%2F%2Fexodus.desync.com%3A6969"],"infoHash":"def33a616598f9f84ca9ddbd8e44a1a8ef4d8cf5","infoHashBuffer":{"type":"Buffer","data":[222,243,58,97,101,152,249,248,76,169,221,189,142,68,161,168,239,77,140,245]},"announce":[],"urlList":[]}}